<svg viewBox="0 0 330 200" xmlns="http://www.w3.org/2000/svg"><g><g><g><g><g><line x1="40" y1="177" x2="35" y2="177" style="visibility: inherit;" fill="rgb(0, 0, 0)" stroke="rgb(204, 204, 204)" stroke-width="1px"></line><line x1="40" y1="154.875" x2="35" y2="154.875" style="visibility: inherit;" fill="rgb(0, 0, 0)" stroke="rgb(204, 204, 204)" stroke-width="1px"></line><line x1="40" y1="132.75" x2="35" y2="132.75" style="visibility: inherit;" fill="rgb(0, 0, 0)" stroke="rgb(204, 204, 204)" stroke-width="1px"></line><line x1="40" y1="110.625" x2="35" y2="110.625" style="visibility: inherit;" fill="rgb(0, 0, 0)" stroke="rgb(204, 204, 204)" stroke-width="1px"></line><line x1="40" y1="88.5" x2="35" y2="88.5" style="visibility: inherit;" fill="rgb(0, 0, 0)" stroke="rgb(204, 204, 204)" stroke-width="1px"></line><line x1="40" y1="66.375" x2="35" y2="66.375" style="visibility: inherit;" fill="rgb(0, 0, 0)" stroke="rgb(204, 204, 204)" stroke-width="1px"></line><line x1="40" y1="44.25" x2="35" y2="44.25" style="visibility: inherit;" fill="rgb(0, 0, 0)" stroke="rgb(204, 204, 204)" stroke-width="1px"></line><line x1="40" y1="22.125" x2="35" y2="22.125" style="visibility: inherit;" fill="rgb(0, 0, 0)" stroke="rgb(204, 204, 204)" stroke-width="1px"></line><line x1="40" y1="0" x2="35" y2="0" style="visibility: inherit;" fill="rgb(0, 0, 0)" stroke="rgb(204, 204, 204)" stroke-width="1px"></line></g><g transform="translate(30, 0)"><text x="0" y="177" dx="0em" dy="0.3em" style="text-anchor: end; visibility: hidden; font-family: Roboto, sans-serif; font-size: 12px; font-weight: 200;" fill="rgb(33, 33, 33)" stroke="none" stroke-width="1px">1</text><text x="0" y="154.875" dx="0em" dy="0.3em" style="text-anchor: end; visibility: inherit; font-family: Roboto, sans-serif; font-size: 12px; font-weight: 200;" fill="rgb(33, 33, 33)" stroke="none" stroke-width="1px">1.5</text><text x="0" y="132.75" dx="0em" dy="0.3em" style="text-anchor: end; visibility: hidden; font-family: Roboto, sans-serif; font-size: 12px; font-weight: 200;" fill="rgb(33, 33, 33)" stroke="none" stroke-width="1px">2</text><text x="0" y="110.625" dx="0em" dy="0.3em" style="text-anchor: end; visibility: inherit; font-family: Roboto, sans-serif; font-size: 12px; font-weight: 200;" fill="rgb(33, 33, 33)" stroke="none" stroke-width="1px">2.5</text><text x="0" y="88.5" dx="0em" dy="0.3em" style="text-anchor: end; visibility: hidden; font-family: Roboto, sans-serif; font-size: 12px; font-weight: 200;" fill="rgb(33, 33, 33)" stroke="none" stroke-width="1px">3</text><text x="0" y="66.375" dx="0em" dy="0.3em" style="text-anchor: end; visibility: inherit; font-family: Roboto, sans-serif; font-size: 12px; font-weight: 200;" fill="rgb(33, 33, 33)" stroke="none" stroke-width="1px">3.5</text><text x="0" y="44.25" dx="0em" dy="0.3em" style="text-anchor: end; visibility: hidden; font-family: Roboto, sans-serif; font-size: 12px; font-weight: 200;" fill="rgb(33, 33, 33)" stroke="none" stroke-width="1px">4</text><text x="0" y="22.125" dx="0em" dy="0.3em" style="text-anchor: end; visibility: inherit; font-family: Roboto, sans-serif; font-size: 12px; font-weight: 200;" fill="rgb(33, 33, 33)" stroke="none" stroke-width="1px">4.5</text><text x="0" y="0" dx="0em" dy="0.3em" style="text-anchor: end; visibility: hidden; font-family: Roboto, sans-serif; font-size: 12px; font-weight: 200;" fill="rgb(33, 33, 33)" stroke="none" stroke-width="1px">5</text></g><line x1="40" y1="0" x2="40" y2="177" fill="rgb(0, 0, 0)" stroke="rgb(204, 204, 204)" stroke-width="1px"></line></g></g><g transform="translate(40, 0)" clip-path="url(#clip_0)"><clipPath id="clip_0"><rect width="290" height="176"></rect></clipPath><g><g><g><line x1="0" y1="0" x2="0" y2="177" fill="rgb(0, 0, 0)" stroke="rgb(66, 66, 66)" stroke-width="1px" opacity="0.25"></line><line x1="24.166666666666664" y1="0" x2="24.166666666666664" y2="177" fill="rgb(0, 0, 0)" stroke="rgb(66, 66, 66)" stroke-width="1px" opacity="0.25"></line><line x1="48.33333333333333" y1="0" x2="48.33333333333333" y2="177" fill="rgb(0, 0, 0)" stroke="rgb(66, 66, 66)" stroke-width="1px" opacity="0.25"></line><line x1="72.5" y1="0" x2="72.5" y2="177" fill="rgb(0, 0, 0)" stroke="rgb(66, 66, 66)" stroke-width="1px" opacity="0.25"></line><line x1="96.66666666666666" y1="0" x2="96.66666666666666" y2="177" fill="rgb(0, 0, 0)" stroke="rgb(66, 66, 66)" stroke-width="1px" opacity="0.25"></line><line x1="120.83333333333334" y1="0" x2="120.83333333333334" y2="177" fill="rgb(0, 0, 0)" stroke="rgb(66, 66, 66)" stroke-width="1px" opacity="0.25"></line><line x1="145" y1="0" x2="145" y2="177" fill="rgb(0, 0, 0)" stroke="rgb(66, 66, 66)" stroke-width="1px" opacity="0.25"></line><line x1="169.16666666666669" y1="0" x2="169.16666666666669" y2="177" fill="rgb(0, 0, 0)" stroke="rgb(66, 66, 66)" stroke-width="1px" opacity="0.25"></line><line x1="193.33333333333331" y1="0" x2="193.33333333333331" y2="177" fill="rgb(0, 0, 0)" stroke="rgb(66, 66, 66)" stroke-width="1px" opacity="0.25"></line><line x1="217.5" y1="0" x2="217.5" y2="177" fill="rgb(0, 0, 0)" stroke="rgb(66, 66, 66)" stroke-width="1px" opacity="0.25"></line><line x1="241.66666666666669" y1="0" x2="241.66666666666669" y2="177" fill="rgb(0, 0, 0)" stroke="rgb(66, 66, 66)" stroke-width="1px" opacity="0.25"></line><line x1="265.8333333333333" y1="0" x2="265.8333333333333" y2="177" fill="rgb(0, 0, 0)" stroke="rgb(66, 66, 66)" stroke-width="1px" opacity="0.25"></line><line x1="290" y1="0" x2="290" y2="177" fill="rgb(0, 0, 0)" stroke="rgb(66, 66, 66)" stroke-width="1px" opacity="0.25"></line></g><g><line x1="0" y1="177" x2="290" y2="177" fill="rgb(0, 0, 0)" stroke="rgb(66, 66, 66)" stroke-width="1px" opacity="0.25"></line><line x1="0" y1="154.875" x2="290" y2="154.875" fill="rgb(0, 0, 0)" stroke="rgb(66, 66, 66)" stroke-width="1px" opacity="0.25"></line><line x1="0" y1="132.75" x2="290" y2="132.75" fill="rgb(0, 0, 0)" stroke="rgb(66, 66, 66)" stroke-width="1px" opacity="0.25"></line><line x1="0" y1="110.625" x2="290" y2="110.625" fill="rgb(0, 0, 0)" stroke="rgb(66, 66, 66)" stroke-width="1px" opacity="0.25"></line><line x1="0" y1="88.5" x2="290" y2="88.5" fill="rgb(0, 0, 0)" stroke="rgb(66, 66, 66)" stroke-width="1px" opacity="0.25"></line><line x1="0" y1="66.375" x2="290" y2="66.375" fill="rgb(0, 0, 0)" stroke="rgb(66, 66, 66)" stroke-width="1px" opacity="0.25"></line><line x1="0" y1="44.25" x2="290" y2="44.25" fill="rgb(0, 0, 0)" stroke="rgb(66, 66, 66)" stroke-width="1px" opacity="0.25"></line><line x1="0" y1="22.125" x2="290" y2="22.125" fill="rgb(0, 0, 0)" stroke="rgb(66, 66, 66)" stroke-width="1px" opacity="0.25"></line><line x1="0" y1="0" x2="290" y2="0" fill="rgb(0, 0, 0)" stroke="rgb(66, 66, 66)" stroke-width="1px" opacity="0.25"></line></g></g></g><g><g><line x1="0" y1="221.25" x2="290" y2="221.25" fill="rgb(0, 0, 0)" stroke="rgb(153, 153, 153)" stroke-width="1.5px"></line></g></g><g><g><line x1="24.166666666666664" y1="0" x2="24.166666666666664" y2="177" fill="rgb(0, 0, 0)" stroke="rgb(153, 153, 153)" stroke-width="1.5px"></line></g></g><g><g><g><g><g><path stroke="rgb(0, 153, 136)" stroke-width="2px" d="M24.166666666666664,9.379180669784546Z" style="fill: none;" fill="none"></path></g><g><path style="fill: none;" fill="none" stroke="none" stroke-width="1px"></path></g><g><path stroke="rgb(51, 187, 238)" stroke-width="2px" d="M24.166666666666664,17.487547874450684L26.583333333333332,26.80543291568756L29,35.42761074280253L31.416666666666668,41.51477799170163L33.833333333333336,48.22135515166688L36.25,51.898896882040425L38.666666666666664,53.53046485269673L41.083333333333336,55.49647366917832L43.5,56.968258753984365L45.916666666666664,56.97930334680881L48.33333333333333,56.51238926010801L50.75,56.85554208971907L53.166666666666664,57.19375076059607L55.583333333333336,56.06976425650474L58,56.1543964393358L60.41666666666667,57.086321490001225L62.833333333333336,58.37868844642104L65.25,59.21626226030714L67.66666666666667,60.42513178963239L70.08333333333333,57.78593193462294L72.5,53.34167968214858L74.91666666666667,50.590797879446995L77.33333333333333,50.05737933554297L79.75,50.98399916691538L82.16666666666667,48.367639323763875" style="fill: none;" fill="none"></path></g><g><path stroke="rgb(204, 51, 17)" stroke-width="2px" d="M24.166666666666664,-28.11034405231476L26.583333333333332,7.975822001695633L29,30.97208470592693L31.416666666666668,47.90907631398126L33.833333333333336,62.202882188298L36.25,72.81034997813845L38.666666666666664,82.68471709726963L41.083333333333336,91.0662627238194L43.5,97.55113009183472L45.916666666666664,103.40053952289908L48.33333333333333,107.54546160975146L50.75,111.7570650798019L53.166666666666664,115.24546415505831L55.583333333333336,118.65326076147457L58,121.56697284291381L60.41666666666667,123.33627751443045L62.833333333333336,126.07686952897403L65.25,128.65178750755896L67.66666666666667,130.7892481972729L70.08333333333333,132.67635897676493L72.5,134.9316621084191L74.91666666666667,136.03301585108937L77.33333333333333,136.33164424930715L79.75,137.59423200459577L82.16666666666667,139.31698610718496" style="fill: none;" fill="none"></path></g><g><path stroke="rgb(0, 119, 187)" stroke-width="2px" d="M29,-1.1687572878234056L31.416666666666668,5.083461447673693L33.833333333333336,10.75992026980929L36.25,16.17336886917932L38.666666666666664,21.109758878910263L41.083333333333336,25.593239742346285L43.5,29.85219202292968L45.916666666666664,33.82426538432773L48.33333333333333,37.20897020677653L50.75,40.50118053215192L53.166666666666664,43.444770131986246L55.583333333333336,46.19845375529313L58,48.49429735138347L60.41666666666667,50.69544943533839L62.833333333333336,52.78046228301863L65.25,54.70809675841091L67.66666666666667,56.6745984425734L70.08333333333333,58.46363284988141L72.5,59.921137923113065L74.91666666666667,61.24369850128852L77.33333333333333,62.563441866401284L79.75,63.922545932657876L82.16666666666667,65.07860635347178L84.58333333333334,66.2488533350135L87,67.26155523548915L89.41666666666667,68.10987250501366L91.83333333333333,69.1385483746758L94.25,70.2109112490672L96.66666666666666,71.31712881393659L99.08333333333333,72.25004520490239L101.5,73.08015409186389L103.91666666666667,73.87083060071221L106.33333333333333,74.66632009041096L108.75,75.29454661356756L111.16666666666667,76.03067279882225L113.58333333333333,76.54597922174938L116,77.18180864004175L118.41666666666667,77.64316573769658L120.83333333333334,78.19777895871064L123.25,78.67636929691969L125.66666666666667,79.004926006538L128.08333333333334,79.50198872130325L130.5,79.89527360944788L132.91666666666666,80.27768728943373L135.33333333333334,80.99787188658847L137.75,81.5582498138657L140.16666666666666,82.21058899317134L142.58333333333331,82.62340060564583L145,82.78865392025018L147.41666666666666,82.97187692532418L149.83333333333334,83.25005404120421L152.25,83.61418664435027L154.66666666666666,83.96649956690976L157.08333333333331,84.3180844544633L159.5,84.61970227713972L161.91666666666666,84.97382415387389L164.33333333333334,85.4625643792949L166.75,85.68341004271521L169.16666666666669,85.97725681912432L171.58333333333334,86.2955259826871L174,86.39382452649429L176.41666666666666,86.64162794877622L178.83333333333334,87.03953528481443L181.25,87.14797003315519L183.66666666666666,87.47523269204278L186.08333333333334,87.72483413903701L188.5,87.85184915953151L190.91666666666666,87.8130165105657L193.33333333333331,88.07970748934721L195.75,88.31333591099725L198.16666666666666,88.61905969116772L200.58333333333334,88.6492316778522L203,88.89099533891805L205.41666666666669,89.03766135892944L207.83333333333334,89.11955883813906L210.25,89.30205382533674L212.66666666666666,89.47821429746033L215.08333333333334,89.87419232950616L217.5,90.1716737343431L219.91666666666666,90.43687109908822L222.33333333333334,90.65693066573954L224.75,90.38506935868749L227.16666666666666,90.42480839988046L229.58333333333331,90.45190123141083L232,90.74855541837378L234.41666666666666,90.88098027498819L236.83333333333334,90.83681846971093L239.25,90.9922459680723L241.66666666666669,90.79627572052996L244.08333333333334,90.95564431281876L246.5,91.24557999570365L248.91666666666666,91.61793668150422L251.33333333333334,91.84491660046291L253.75,92.00485898165529L256.1666666666667,92.27025354569332L258.58333333333337,92.3284717122625L261,92.42030099152986L263.4166666666667,92.48607518148103" style="fill: none;" fill="none"></path></g><g><path stroke="rgb(255, 112, 67)" stroke-width="2px" d="M29,-3.885268274618652L31.416666666666668,4.91842023721513L33.833333333333336,13.1842271615696L36.25,20.910434703085507L38.666666666666664,27.97261830181101L41.083333333333336,34.56643597932758L43.5,40.694358849962086L45.916666666666664,46.04784776688005L48.33333333333333,51.43521997332273L50.75,56.19548018316739L53.166666666666664,60.52994353882372L55.583333333333336,64.31169554317901L58,68.20297427274852L60.41666666666667,71.87493957743398L62.833333333333336,75.35863511815832L65.25,78.53181910947289L67.66666666666667,81.37710679075442L70.08333333333333,84.26169523366062L72.5,87.03904613588259L74.91666666666667,89.48009068465392L77.33333333333333,91.77438668321254L79.75,94.05195838515982L82.16666666666667,96.37911894510144L84.58333333333334,98.63142442211043L87,100.58062919502676L89.41666666666667,102.11206318322223L91.83333333333333,104.21813006146913L94.25,105.9588797778407L96.66666666666666,107.73182114577462L99.08333333333333,109.3479554784028L101.5,110.7482203992333L103.91666666666667,112.5936234259121L106.33333333333333,113.77432290339715L108.75,115.3689486645681L111.16666666666667,116.72507621072688L113.58333333333333,117.9780303359241L116,119.17825892955501L118.41666666666667,120.38711530960528L120.83333333333334,121.94353456024149L123.25,123.20808288351245L125.66666666666667,124.28634250728955L128.08333333333334,125.54494636419565L130.5,126.86123481503788L132.91666666666666,127.89407195521875L135.33333333333334,128.79950259851913L137.75,130.05822972495702L140.16666666666666,131.16643598104625L142.58333333333331,131.9429177786479L145,133.06397167120343L147.41666666666666,134.34728781744596L149.83333333333334,135.151499666959L152.25,136.26233756434434L154.66666666666666,136.77108793194037L157.08333333333331,137.84290276011828L159.5,138.54913142944L161.91666666666666,139.178091881422L164.33333333333334,140.26576105221983L166.75,140.71155469098616L169.16666666666669,141.5550219922002L171.58333333333334,142.72872887305834L174,143.46562220008622L176.41666666666666,143.92447787136706L178.83333333333334,145.04814598328397L181.25,145.71613710741119L183.66666666666666,146.36927354109235L186.08333333333334,147.16887999637095L188.5,147.7721804086159L190.91666666666666,148.29581864498795L193.33333333333331,148.72624384059156L195.75,149.84533856328514L198.16666666666666,150.64713248024097L200.58333333333334,151.16212715154714L203,151.5876194086422L205.41666666666669,152.23243423978982L207.83333333333334,152.78120689797697L210.25,153.0405048561591L212.66666666666666,153.94290703728782L215.08333333333334,154.44255548831813L217.5,155.22190847466584L219.91666666666666,155.7412617949855L222.33333333333334,156.0674940078385L224.75,156.67633844190402L227.16666666666666,157.52189476951102L229.58333333333331,157.9539836982735L232,158.28782782196095L234.41666666666666,158.47758638405256L236.83333333333334,159.0953000279871L239.25,159.97062861279292L241.66666666666669,160.1613563022354L244.08333333333334,160.95729269512526L246.5,161.40509924845716L248.91666666666666,161.83594124053013L251.33333333333334,162.14268957694824L253.75,162.63946655464443L256.1666666666667,162.6637026969926L258.58333333333337,163.0930121722422L261,163.46443259612332L263.4166666666667,164.01418783602483" style="fill: none;" fill="none"></path></g></g></g></g><g opacity="0.2"><g><g><g><path stroke="rgb(0, 153, 136)" stroke-width="2px" d="M24.166666666666664,9.379180669784546Z" style="fill: none;" fill="none"></path></g><g><path style="fill: none;" fill="none" stroke="none" stroke-width="1px"></path></g><g><path stroke="rgb(51, 187, 238)" stroke-width="2px" d="M24.166666666666664,17.487547874450684L26.583333333333332,32.39616394042969L29,43.704901456832886L31.416666666666668,48.67328667640686L33.833333333333336,56.97746229171753L36.25,56.98626101016998L38.666666666666664,55.863633155822754L41.083333333333336,58.36293339729309L43.5,59.13885587453842L45.916666666666664,56.995703279972076L48.33333333333333,55.81625300645828L50.75,57.368403911590576L53.166666666666664,57.699959456920624L55.583333333333336,54.385986506938934L58,56.28124523162842L60.41666666666667,58.48355180025101L62.833333333333336,60.31669199466705L65.25,60.47241032123566L67.66666666666667,62.23825192451477L70.08333333333333,53.82737338542938L72.5,46.675545036792755L74.91666666666667,46.46456569433212L77.33333333333333,49.2572620511055L79.75,52.37391793727875L82.16666666666667,44.443118155002594" style="fill: none;" fill="none"></path></g><g><path stroke="rgb(204, 51, 17)" stroke-width="2px" d="M24.166666666666664,-28.11034405231476L26.583333333333332,29.627521634101868L29,53.04849690198898L31.416666666666668,67.8269784450531L33.833333333333336,80.86487513780594L36.25,87.48429661989212L38.666666666666664,96.80522006750107L41.083333333333336,103.28663671016693L43.5,107.11504983901978L45.916666666666664,112.08623081445694L48.33333333333333,113.7252506017685L50.75,118.05155092477798L53.166666666666664,120.466672539711L55.583333333333336,123.75827944278717L58,125.93411600589752L60.41666666666667,125.98898667097092L62.833333333333336,130.18659782409668L65.25,132.51351070404053L67.66666666666667,133.9951136112213L70.08333333333333,135.50685265660286L72.5,138.31449311971664L74.91666666666667,137.68501022458076L77.33333333333333,136.779580950737L79.75,139.48809868097305L82.16666666666667,141.90110501646996" style="fill: none;" fill="none"></path></g><g><path stroke="rgb(0, 119, 187)" stroke-width="2px" d="M26.583333333333332,-3.7080795764923096L29,5.121212840080261L31.416666666666668,12.436070680618286L33.833333333333336,18.171104907989502L36.25,23.66211712360382L38.666666666666664,28.168875575065613L41.083333333333336,32.13019788265228L43.5,36.13331937789917L45.916666666666664,39.722331404685974L48.33333333333333,42.25532841682434L50.75,45.42157995700836L53.166666666666664,47.850543200969696L55.583333333333336,50.3235844373703L58,51.935364067554474L60.41666666666667,53.995625138282776L62.833333333333336,55.90709924697876L65.25,57.59905904531479L67.66666666666667,59.6240513920784L70.08333333333333,61.14702093601227L72.5,62.107315599918365L74.91666666666667,63.22749584913254L77.33333333333333,64.54303085803986L79.75,65.96118593215942L82.16666666666667,66.81268876791L84.58333333333334,68.0042188167572L87,68.78060549497604L89.41666666666667,69.3823471069336L91.83333333333333,70.68156123161316L94.25,71.81945496797562L96.66666666666666,72.97645479440689L99.08333333333333,73.64941960573196L101.5,74.32531732320786L103.91666666666667,75.05684530735016L106.33333333333333,75.85955429077148L108.75,76.23688638210297L111.16666666666667,77.13486206531525L113.58333333333333,77.3189388513565L116,78.1355527639389L118.41666666666667,78.33520138263702L120.83333333333334,79.02969878911972L123.25,79.39425480365753L125.66666666666667,79.4977610707283L128.08333333333334,80.24758279323578L130.5,80.48520094156265L132.91666666666666,80.85130780935287L135.33333333333334,82.07814878225327L137.75,82.39881670475006L140.16666666666666,83.18909776210785L142.58333333333331,83.24261802434921L145,83.0365338921547L147.41666666666666,83.24671143293381L149.83333333333334,83.66731971502304L152.25,84.16038554906845L154.66666666666666,84.49496895074844L157.08333333333331,84.8454617857933L159.5,85.07212901115417L161.91666666666666,85.50500696897507L164.33333333333334,86.1956747174263L166.75,86.01467853784561L169.16666666666669,86.41802698373795L171.58333333333334,86.77292972803116L174,86.54127234220505L176.41666666666666,87.0133330821991L178.83333333333334,87.63639628887177L181.25,87.31062215566635L183.66666666666666,87.96612668037415L186.08333333333334,88.09923630952835L188.5,88.04237169027328L190.91666666666666,87.754767537117L193.33333333333331,88.47974395751953L195.75,88.66377854347229L198.16666666666666,89.07764536142349L200.58333333333334,88.69448965787888L203,89.25364083051682L205.41666666666669,89.25766038894653L207.83333333333334,89.24240505695343L210.25,89.57579630613327L212.66666666666666,89.74245500564575L215.08333333333334,90.46815937757492L217.5,90.61789584159851L219.91666666666666,90.8346671462059L222.33333333333334,90.98702001571655L224.75,89.97727739810944L227.16666666666666,90.48441696166992L229.58333333333331,90.49254047870636L232,91.1935366988182L234.41666666666666,91.07961755990982L236.83333333333334,90.77057576179504L239.25,91.22538721561432L241.66666666666669,90.50232034921646L244.08333333333334,91.19469720125198L246.5,91.68048352003098L248.91666666666666,92.17647171020508L251.33333333333334,92.18538647890091L253.75,92.24477255344391L256.1666666666667,92.66834539175034L258.58333333333337,92.41579896211624L261,92.55804491043091L263.4166666666667,92.58473646640778" style="fill: none;" fill="none"></path></g><g><path stroke="rgb(255, 112, 67)" stroke-width="2px" d="M26.583333333333332,-6.947991371154785L29,5.316303849220276L31.416666666666668,15.271557927131653L33.833333333333336,23.976064682006836L36.25,31.59856116771698L38.666666666666664,38.071653842926025L41.083333333333336,44.18028545379639L43.5,49.73185479640961L45.916666666666664,53.997154891490936L48.33333333333333,59.4674152135849L50.75,63.30996537208557L53.166666666666664,67.01748579740524L55.583333333333336,69.97691470384598L58,74.03531831502914L60.41666666666667,77.38029778003693L62.833333333333336,80.58270424604416L65.25,83.29078942537308L67.66666666666667,85.6446048617363L70.08333333333333,88.58831423521042L72.5,91.20492017269135L74.91666666666667,93.14157718420029L77.33333333333333,95.21578538417816L79.75,97.46828895807266L82.16666666666667,99.86984324455261L84.58333333333334,102.00987303256989L87,103.50443136692047L89.41666666666667,104.40921181440353L91.83333333333333,107.37722843885422L94.25,108.5700033903122L96.66666666666666,110.39123260974884L99.08333333333333,111.77215665578842L101.5,112.84861761331558L103.91666666666667,115.36172783374786L106.33333333333333,115.54537206888199L108.75,117.76088726520538L111.16666666666667,118.75926750898361L113.58333333333333,119.85746151208878L116,120.97860181331635L118.41666666666667,122.20039987564087L120.83333333333334,124.27816343307495L123.25,125.10490536689758L125.66666666666667,125.90373194217682L128.08333333333334,127.4328521490097L130.5,128.83566749095917L132.91666666666666,129.44332766532898L135.33333333333334,130.157648563385L137.75,131.94632041454315L140.16666666666666,132.82874536514282L142.58333333333331,133.1076404750347L145,134.74555251002312L147.41666666666666,136.27226203680038L149.83333333333334,136.35781744122505L152.25,137.92859441041946L154.66666666666666,137.5342134833336L157.08333333333331,139.4506250023842L159.5,139.6084744334221L161.91666666666666,140.12153255939484L164.33333333333334,141.89726480841637L166.75,141.3802451491356L169.16666666666669,142.82022294402122L171.58333333333334,144.48928919434547L174,144.57096219062805L176.41666666666666,144.61276137828827L178.83333333333334,146.7336481511593L181.25,146.718123793602L183.66666666666666,147.34897819161415L186.08333333333334,148.36828967928886L188.5,148.67713102698326L190.91666666666666,149.08127599954605L193.33333333333331,149.37188163399696L195.75,151.52398064732552L198.16666666666666,151.84982335567474L200.58333333333334,151.9346191585064L203,152.22585779428482L205.41666666666669,153.19965648651123L207.83333333333334,153.60436588525772L210.25,153.42945179343224L212.66666666666666,155.29651030898094L215.08333333333334,155.1920281648636L217.5,156.3909379541874L219.91666666666666,156.520291775465L222.33333333333334,156.55684232711792L224.75,157.58960509300232L227.16666666666666,158.79022926092148L229.58333333333331,158.6021170914173L232,158.78859400749207L234.41666666666666,158.76222422719002L236.83333333333334,160.02187049388885L239.25,161.28362149000168L241.66666666666669,160.44744783639908L244.08333333333334,162.15119728446007L246.5,162.07680907845497L248.91666666666666,162.4822042286396L251.33333333333334,162.6028120815754L253.75,163.38463202118874L256.1666666666667,162.70005691051483L258.58333333333337,163.73697638511658L261,164.02156323194504L263.4166666666667,164.83882069587708" style="fill: none;" fill="none"></path></g></g></g></g></g></g><g transform="translate(40, 177)" clip-path="url(#clip_1)"><clipPath id="clip_1"><rect width="290" height="22"></rect></clipPath><g><g><line x1="0" y1="0" x2="0" y2="5" style="visibility: inherit;" fill="rgb(0, 0, 0)" stroke="rgb(204, 204, 204)" stroke-width="1px"></line><line x1="24.166666666666664" y1="0" x2="24.166666666666664" y2="5" style="visibility: inherit;" fill="rgb(0, 0, 0)" stroke="rgb(204, 204, 204)" stroke-width="1px"></line><line x1="48.33333333333333" y1="0" x2="48.33333333333333" y2="5" style="visibility: inherit;" fill="rgb(0, 0, 0)" stroke="rgb(204, 204, 204)" stroke-width="1px"></line><line x1="72.5" y1="0" x2="72.5" y2="5" style="visibility: inherit;" fill="rgb(0, 0, 0)" stroke="rgb(204, 204, 204)" stroke-width="1px"></line><line x1="96.66666666666666" y1="0" x2="96.66666666666666" y2="5" style="visibility: inherit;" fill="rgb(0, 0, 0)" stroke="rgb(204, 204, 204)" stroke-width="1px"></line><line x1="120.83333333333334" y1="0" x2="120.83333333333334" y2="5" style="visibility: inherit;" fill="rgb(0, 0, 0)" stroke="rgb(204, 204, 204)" stroke-width="1px"></line><line x1="145" y1="0" x2="145" y2="5" style="visibility: inherit;" fill="rgb(0, 0, 0)" stroke="rgb(204, 204, 204)" stroke-width="1px"></line><line x1="169.16666666666669" y1="0" x2="169.16666666666669" y2="5" style="visibility: inherit;" fill="rgb(0, 0, 0)" stroke="rgb(204, 204, 204)" stroke-width="1px"></line><line x1="193.33333333333331" y1="0" x2="193.33333333333331" y2="5" style="visibility: inherit;" fill="rgb(0, 0, 0)" stroke="rgb(204, 204, 204)" stroke-width="1px"></line><line x1="217.5" y1="0" x2="217.5" y2="5" style="visibility: inherit;" fill="rgb(0, 0, 0)" stroke="rgb(204, 204, 204)" stroke-width="1px"></line><line x1="241.66666666666669" y1="0" x2="241.66666666666669" y2="5" style="visibility: inherit;" fill="rgb(0, 0, 0)" stroke="rgb(204, 204, 204)" stroke-width="1px"></line><line x1="265.8333333333333" y1="0" x2="265.8333333333333" y2="5" style="visibility: inherit;" fill="rgb(0, 0, 0)" stroke="rgb(204, 204, 204)" stroke-width="1px"></line><line x1="290" y1="0" x2="290" y2="5" style="visibility: inherit;" fill="rgb(0, 0, 0)" stroke="rgb(204, 204, 204)" stroke-width="1px"></line></g><g transform="translate(0, 8)"><text x="0" y="0" dx="0em" dy="0.95em" style="text-anchor: middle; visibility: hidden; font-family: Roboto, sans-serif; font-size: 12px; font-weight: 200;" fill="rgb(33, 33, 33)" stroke="none" stroke-width="1px">-10</text><text x="24.166666666666664" y="0" dx="0em" dy="0.95em" style="text-anchor: middle; visibility: inherit; font-family: Roboto, sans-serif; font-size: 12px; font-weight: 200;" fill="rgb(33, 33, 33)" stroke="none" stroke-width="1px">0</text><text x="48.33333333333333" y="0" dx="0em" dy="0.95em" style="text-anchor: middle; visibility: inherit; font-family: Roboto, sans-serif; font-size: 12px; font-weight: 200;" fill="rgb(33, 33, 33)" stroke="none" stroke-width="1px">10</text><text x="72.5" y="0" dx="0em" dy="0.95em" style="text-anchor: middle; visibility: inherit; font-family: Roboto, sans-serif; font-size: 12px; font-weight: 200;" fill="rgb(33, 33, 33)" stroke="none" stroke-width="1px">20</text><text x="96.66666666666666" y="0" dx="0em" dy="0.95em" style="text-anchor: middle; visibility: inherit; font-family: Roboto, sans-serif; font-size: 12px; font-weight: 200;" fill="rgb(33, 33, 33)" stroke="none" stroke-width="1px">30</text><text x="120.83333333333334" y="0" dx="0em" dy="0.95em" style="text-anchor: middle; visibility: inherit; font-family: Roboto, sans-serif; font-size: 12px; font-weight: 200;" fill="rgb(33, 33, 33)" stroke="none" stroke-width="1px">40</text><text x="145" y="0" dx="0em" dy="0.95em" style="text-anchor: middle; visibility: inherit; font-family: Roboto, sans-serif; font-size: 12px; font-weight: 200;" fill="rgb(33, 33, 33)" stroke="none" stroke-width="1px">50</text><text x="169.16666666666669" y="0" dx="0em" dy="0.95em" style="text-anchor: middle; visibility: inherit; font-family: Roboto, sans-serif; font-size: 12px; font-weight: 200;" fill="rgb(33, 33, 33)" stroke="none" stroke-width="1px">60</text><text x="193.33333333333331" y="0" dx="0em" dy="0.95em" style="text-anchor: middle; visibility: inherit; font-family: Roboto, sans-serif; font-size: 12px; font-weight: 200;" fill="rgb(33, 33, 33)" stroke="none" stroke-width="1px">70</text><text x="217.5" y="0" dx="0em" dy="0.95em" style="text-anchor: middle; visibility: inherit; font-family: Roboto, sans-serif; font-size: 12px; font-weight: 200;" fill="rgb(33, 33, 33)" stroke="none" stroke-width="1px">80</text><text x="241.66666666666669" y="0" dx="0em" dy="0.95em" style="text-anchor: middle; visibility: inherit; font-family: Roboto, sans-serif; font-size: 12px; font-weight: 200;" fill="rgb(33, 33, 33)" stroke="none" stroke-width="1px">90</text><text x="265.8333333333333" y="0" dx="0em" dy="0.95em" style="text-anchor: middle; visibility: inherit; font-family: Roboto, sans-serif; font-size: 12px; font-weight: 200;" fill="rgb(33, 33, 33)" stroke="none" stroke-width="1px">100</text><text x="290" y="0" dx="0em" dy="0.95em" style="text-anchor: middle; visibility: hidden; font-family: Roboto, sans-serif; font-size: 12px; font-weight: 200;" fill="rgb(33, 33, 33)" stroke="none" stroke-width="1px">110</text></g><line x1="0" y1="0" x2="290" y2="0" fill="rgb(0, 0, 0)" stroke="rgb(204, 204, 204)" stroke-width="1px"></line></g></g></g></g></svg>