<svg viewBox="0 0 330 200" xmlns="http://www.w3.org/2000/svg"><g><g><g><g><g><line x1="40" y1="177" x2="35" y2="177" style="visibility: inherit;" fill="rgb(0, 0, 0)" stroke="rgb(204, 204, 204)" stroke-width="1px"></line><line x1="40" y1="154.875" x2="35" y2="154.875" style="visibility: inherit;" fill="rgb(0, 0, 0)" stroke="rgb(204, 204, 204)" stroke-width="1px"></line><line x1="40" y1="132.75" x2="35" y2="132.75" style="visibility: inherit;" fill="rgb(0, 0, 0)" stroke="rgb(204, 204, 204)" stroke-width="1px"></line><line x1="40" y1="110.625" x2="35" y2="110.625" style="visibility: inherit;" fill="rgb(0, 0, 0)" stroke="rgb(204, 204, 204)" stroke-width="1px"></line><line x1="40" y1="88.5" x2="35" y2="88.5" style="visibility: inherit;" fill="rgb(0, 0, 0)" stroke="rgb(204, 204, 204)" stroke-width="1px"></line><line x1="40" y1="66.375" x2="35" y2="66.375" style="visibility: inherit;" fill="rgb(0, 0, 0)" stroke="rgb(204, 204, 204)" stroke-width="1px"></line><line x1="40" y1="44.25000000000002" x2="35" y2="44.25000000000002" style="visibility: inherit;" fill="rgb(0, 0, 0)" stroke="rgb(204, 204, 204)" stroke-width="1px"></line><line x1="40" y1="22.12500000000002" x2="35" y2="22.12500000000002" style="visibility: inherit;" fill="rgb(0, 0, 0)" stroke="rgb(204, 204, 204)" stroke-width="1px"></line><line x1="40" y1="0" x2="35" y2="0" style="visibility: inherit;" fill="rgb(0, 0, 0)" stroke="rgb(204, 204, 204)" stroke-width="1px"></line></g><g transform="translate(30, 0)"><text x="0" y="177" dx="0em" dy="0.3em" style="text-anchor: end; visibility: hidden; font-family: Roboto, sans-serif; font-size: 12px; font-weight: 200;" fill="rgb(33, 33, 33)" stroke="none" stroke-width="1px">0</text><text x="0" y="154.875" dx="0em" dy="0.3em" style="text-anchor: end; visibility: inherit; font-family: Roboto, sans-serif; font-size: 12px; font-weight: 200;" fill="rgb(33, 33, 33)" stroke="none" stroke-width="1px">0.1</text><text x="0" y="132.75" dx="0em" dy="0.3em" style="text-anchor: end; visibility: hidden; font-family: Roboto, sans-serif; font-size: 12px; font-weight: 200;" fill="rgb(33, 33, 33)" stroke="none" stroke-width="1px">0.2</text><text x="0" y="110.625" dx="0em" dy="0.3em" style="text-anchor: end; visibility: inherit; font-family: Roboto, sans-serif; font-size: 12px; font-weight: 200;" fill="rgb(33, 33, 33)" stroke="none" stroke-width="1px">0.3</text><text x="0" y="88.5" dx="0em" dy="0.3em" style="text-anchor: end; visibility: hidden; font-family: Roboto, sans-serif; font-size: 12px; font-weight: 200;" fill="rgb(33, 33, 33)" stroke="none" stroke-width="1px">0.4</text><text x="0" y="66.375" dx="0em" dy="0.3em" style="text-anchor: end; visibility: inherit; font-family: Roboto, sans-serif; font-size: 12px; font-weight: 200;" fill="rgb(33, 33, 33)" stroke="none" stroke-width="1px">0.5</text><text x="0" y="44.25000000000002" dx="0em" dy="0.3em" style="text-anchor: end; visibility: hidden; font-family: Roboto, sans-serif; font-size: 12px; font-weight: 200;" fill="rgb(33, 33, 33)" stroke="none" stroke-width="1px">0.6</text><text x="0" y="22.12500000000002" dx="0em" dy="0.3em" style="text-anchor: end; visibility: inherit; font-family: Roboto, sans-serif; font-size: 12px; font-weight: 200;" fill="rgb(33, 33, 33)" stroke="none" stroke-width="1px">0.7</text><text x="0" y="0" dx="0em" dy="0.3em" style="text-anchor: end; visibility: hidden; font-family: Roboto, sans-serif; font-size: 12px; font-weight: 200;" fill="rgb(33, 33, 33)" stroke="none" stroke-width="1px">0.8</text></g><line x1="40" y1="0" x2="40" y2="177" fill="rgb(0, 0, 0)" stroke="rgb(204, 204, 204)" stroke-width="1px"></line></g></g><g transform="translate(40, 0)" clip-path="url(#clip_0)"><clipPath id="clip_0"><rect width="290" height="176"></rect></clipPath><g><g><g><line x1="0" y1="0" x2="0" y2="177" fill="rgb(0, 0, 0)" stroke="rgb(66, 66, 66)" stroke-width="1px" opacity="0.25"></line><line x1="24.166666666666664" y1="0" x2="24.166666666666664" y2="177" fill="rgb(0, 0, 0)" stroke="rgb(66, 66, 66)" stroke-width="1px" opacity="0.25"></line><line x1="48.33333333333333" y1="0" x2="48.33333333333333" y2="177" fill="rgb(0, 0, 0)" stroke="rgb(66, 66, 66)" stroke-width="1px" opacity="0.25"></line><line x1="72.5" y1="0" x2="72.5" y2="177" fill="rgb(0, 0, 0)" stroke="rgb(66, 66, 66)" stroke-width="1px" opacity="0.25"></line><line x1="96.66666666666666" y1="0" x2="96.66666666666666" y2="177" fill="rgb(0, 0, 0)" stroke="rgb(66, 66, 66)" stroke-width="1px" opacity="0.25"></line><line x1="120.83333333333334" y1="0" x2="120.83333333333334" y2="177" fill="rgb(0, 0, 0)" stroke="rgb(66, 66, 66)" stroke-width="1px" opacity="0.25"></line><line x1="145" y1="0" x2="145" y2="177" fill="rgb(0, 0, 0)" stroke="rgb(66, 66, 66)" stroke-width="1px" opacity="0.25"></line><line x1="169.16666666666669" y1="0" x2="169.16666666666669" y2="177" fill="rgb(0, 0, 0)" stroke="rgb(66, 66, 66)" stroke-width="1px" opacity="0.25"></line><line x1="193.33333333333331" y1="0" x2="193.33333333333331" y2="177" fill="rgb(0, 0, 0)" stroke="rgb(66, 66, 66)" stroke-width="1px" opacity="0.25"></line><line x1="217.5" y1="0" x2="217.5" y2="177" fill="rgb(0, 0, 0)" stroke="rgb(66, 66, 66)" stroke-width="1px" opacity="0.25"></line><line x1="241.66666666666669" y1="0" x2="241.66666666666669" y2="177" fill="rgb(0, 0, 0)" stroke="rgb(66, 66, 66)" stroke-width="1px" opacity="0.25"></line><line x1="265.8333333333333" y1="0" x2="265.8333333333333" y2="177" fill="rgb(0, 0, 0)" stroke="rgb(66, 66, 66)" stroke-width="1px" opacity="0.25"></line><line x1="290" y1="0" x2="290" y2="177" fill="rgb(0, 0, 0)" stroke="rgb(66, 66, 66)" stroke-width="1px" opacity="0.25"></line></g><g><line x1="0" y1="177" x2="290" y2="177" fill="rgb(0, 0, 0)" stroke="rgb(66, 66, 66)" stroke-width="1px" opacity="0.25"></line><line x1="0" y1="154.875" x2="290" y2="154.875" fill="rgb(0, 0, 0)" stroke="rgb(66, 66, 66)" stroke-width="1px" opacity="0.25"></line><line x1="0" y1="132.75" x2="290" y2="132.75" fill="rgb(0, 0, 0)" stroke="rgb(66, 66, 66)" stroke-width="1px" opacity="0.25"></line><line x1="0" y1="110.625" x2="290" y2="110.625" fill="rgb(0, 0, 0)" stroke="rgb(66, 66, 66)" stroke-width="1px" opacity="0.25"></line><line x1="0" y1="88.5" x2="290" y2="88.5" fill="rgb(0, 0, 0)" stroke="rgb(66, 66, 66)" stroke-width="1px" opacity="0.25"></line><line x1="0" y1="66.375" x2="290" y2="66.375" fill="rgb(0, 0, 0)" stroke="rgb(66, 66, 66)" stroke-width="1px" opacity="0.25"></line><line x1="0" y1="44.25000000000002" x2="290" y2="44.25000000000002" fill="rgb(0, 0, 0)" stroke="rgb(66, 66, 66)" stroke-width="1px" opacity="0.25"></line><line x1="0" y1="22.12500000000002" x2="290" y2="22.12500000000002" fill="rgb(0, 0, 0)" stroke="rgb(66, 66, 66)" stroke-width="1px" opacity="0.25"></line><line x1="0" y1="0" x2="290" y2="0" fill="rgb(0, 0, 0)" stroke="rgb(66, 66, 66)" stroke-width="1px" opacity="0.25"></line></g></g></g><g><g><line x1="0" y1="177" x2="290" y2="177" fill="rgb(0, 0, 0)" stroke="rgb(153, 153, 153)" stroke-width="1.5px"></line></g></g><g><g><line x1="24.166666666666664" y1="0" x2="24.166666666666664" y2="177" fill="rgb(0, 0, 0)" stroke="rgb(153, 153, 153)" stroke-width="1.5px"></line></g></g><g><g><g><g><g><path stroke="rgb(0, 153, 136)" stroke-width="2px" d="M24.166666666666664,167.35089042037725Z" style="fill: none;" fill="none"></path></g><g><path stroke="rgb(238, 51, 119)" stroke-width="2px" d="M24.166666666666664,173.77428643335588Z" style="fill: none;" fill="none"></path></g><g><path stroke="rgb(51, 187, 238)" stroke-width="2px" d="M24.166666666666664,155.93504281528294L26.583333333333332,152.45252996496856L29,146.4634403520245L31.416666666666668,143.57137279843857L33.833333333333336,138.67744438556244L36.25,135.31230083045577L38.666666666666664,134.7388325611199L41.083333333333336,131.58542061502163L43.5,129.78252998299754L45.916666666666664,128.82187915228513L48.33333333333333,126.77612335338365L50.75,125.93478916248417L53.166666666666664,125.64889051439151L55.583333333333336,125.04236037094674L58,124.13487859405132L60.41666666666667,122.77501477586632L62.833333333333336,121.41563903053391L65.25,120.16522631383486L67.66666666666667,119.1432379047939L70.08333333333333,119.67171270121061L72.5,121.51093095866106L74.91666666666667,121.96209326150718L77.33333333333333,122.61331727713528L79.75,122.02554371266801L82.16666666666667,121.89032584317249" style="fill: none;" fill="none"></path></g><g><path stroke="rgb(204, 51, 17)" stroke-width="2px" d="M24.166666666666664,168.44336993806064L26.583333333333332,154.35209379927255L29,143.23013782999195L31.416666666666668,133.62651003293885L33.833333333333336,124.76646090352793L36.25,116.87840799515627L38.666666666666664,109.4255948376664L41.083333333333336,102.96236214923579L43.5,97.7963045612493L45.916666666666664,92.8991389995518L48.33333333333333,89.18923720847148L50.75,85.56993627162986L53.166666666666664,81.85303726466596L55.583333333333336,78.90559881841021L58,76.29613689034828L60.41666666666667,74.13347054809859L62.833333333333336,71.66801783631253L65.25,69.65926137043579L67.66666666666667,67.92441027442382L70.08333333333333,65.95996347148221L72.5,64.04789828000025L74.91666666666667,62.42531158129794L77.33333333333333,61.60117327368539L79.75,59.81640480972305L82.16666666666667,58.02570326260453" style="fill: none;" fill="none"></path></g><g><path stroke="rgb(0, 119, 187)" stroke-width="2px" d="M24.166666666666664,174.82555286656134L26.583333333333332,173.38158413945348L29,170.85940543772674L31.416666666666668,167.8105621516049L33.833333333333336,165.48918077333877L36.25,162.335820203179L38.666666666666664,159.36621210524055L41.083333333333336,156.7539220551264L43.5,153.8969644301584L45.916666666666664,151.21687456245454L48.33333333333333,148.47348827033983L50.75,145.68976493463447L53.166666666666664,143.7512531670688L55.583333333333336,141.77371044878885L58,140.751337358931L60.41666666666667,139.92071601356324L62.833333333333336,138.66130686178425L65.25,136.81846408873514L67.66666666666667,134.67995359937646L70.08333333333333,133.23384118505496L72.5,132.04003329858887L74.91666666666667,131.1063172782139L77.33333333333333,130.2199258340876L79.75,129.90554166531146L82.16666666666667,129.33638228754594L84.58333333333334,128.28819062143467L87,127.44183267503429L89.41666666666667,126.33604547782241L91.83333333333333,125.99874083580032L94.25,124.92657850751222L96.66666666666666,123.35914140157192L99.08333333333333,122.79920673063879L101.5,122.08271850914583L103.91666666666667,120.8374064522074L106.33333333333333,119.98149862350418L108.75,120.17464981255313L111.16666666666667,119.80128852063253L113.58333333333333,119.63163337366666L116,119.09494991038015L118.41666666666667,119.53399733026168L120.83333333333334,119.03636828513373L123.25,118.08545661493929L125.66666666666667,117.40618899757793L128.08333333333334,117.2704339223575L130.5,117.24334250375176L132.91666666666666,117.87942189568997L135.33333333333334,116.90203941815248L137.75,115.55455243556543L140.16666666666666,114.69169861952598L142.58333333333331,114.82632057297423L145,115.01581699805469L147.41666666666666,114.80334773157182L149.83333333333334,114.89331004020076L152.25,114.72984355685995L154.66666666666666,114.46867878733788L157.08333333333331,113.87709218858883L159.5,113.03288822829231L161.91666666666666,113.23306172167962L164.33333333333334,113.0269986961824L166.75,112.84899925437821L169.16666666666669,112.36167347876578L171.58333333333334,111.85183150737495L174,112.08953995209343L176.41666666666666,111.90599789739493L178.83333333333334,110.98045354199913L181.25,110.7512940502912L183.66666666666666,110.50507510225478L186.08333333333334,110.62915186596216L188.5,110.86668016619863L190.91666666666666,111.28100264136421L193.33333333333331,111.25779063143986L195.75,111.08078118347322L198.16666666666666,110.26787964512822L200.58333333333334,109.78013872212122L203,109.70493803683492L205.41666666666669,109.60545599915726L207.83333333333334,109.43704616104448L210.25,109.11855375215343L212.66666666666666,108.76437606480677L215.08333333333334,108.98675718943453L217.5,108.30476937914L219.91666666666666,108.167382187987L222.33333333333334,107.81314437827147L224.75,109.01399343157217L227.16666666666666,109.51705635752921L229.58333333333331,109.38400637606765L232,108.76056275963774L234.41666666666666,107.8972472262382L236.83333333333334,108.03159214925765L239.25,107.84039360804557L241.66666666666669,107.50822797729492L244.08333333333334,107.09148473032664L246.5,107.27632915668698L248.91666666666666,107.11542767997392L251.33333333333334,106.74708129892234L253.75,106.58043509679726L256.1666666666667,106.80661449705177L258.58333333333337,106.88796051069863L261,106.44751875534516L263.4166666666667,106.83558794519222" style="fill: none;" fill="none"></path></g><g><path stroke="rgb(255, 112, 67)" stroke-width="2px" d="M24.166666666666664,175.37016571720596L26.583333333333332,172.90843685793516L29,169.50428684715098L31.416666666666668,165.4901694431306L33.833333333333336,160.48256475689743L36.25,155.5454257772032L38.666666666666664,150.87638648264016L41.083333333333336,144.9137580062106L43.5,139.64474128132457L45.916666666666664,134.86410762251248L48.33333333333333,131.1555159286351L50.75,126.93808830222414L53.166666666666664,123.27113818936357L55.583333333333336,119.87788631294927L58,116.13150842599342L60.41666666666667,112.227342113704L62.833333333333336,108.32336005768353L65.25,104.78606038324811L67.66666666666667,103.04422769636031L70.08333333333333,100.11123481789173L72.5,97.67239581330107L74.91666666666667,95.32628917994182L77.33333333333333,92.45178204018573L79.75,90.19739426417051L82.16666666666667,88.47805389851372L84.58333333333334,85.7894529559789L87,83.95898311001042L89.41666666666667,82.24951286935108L91.83333333333333,79.4038490469075L94.25,77.62854355455637L96.66666666666666,76.02008177391556L99.08333333333333,74.68829131882934L101.5,72.92490020772357L103.91666666666667,71.03836442120199L106.33333333333333,69.82495197408016L108.75,68.45855432384077L111.16666666666667,67.14976441427449L113.58333333333333,65.59031929727131L116,64.34226607495089L118.41666666666667,63.131649124276855L120.83333333333334,61.21006694738062L123.25,59.51383897761728L125.66666666666667,59.0257977072989L128.08333333333334,58.013129110434754L130.5,56.699267271202785L132.91666666666666,55.50349248821549L135.33333333333334,54.527968802266656L137.75,52.55729953535744L140.16666666666666,51.56504102400603L142.58333333333331,51.05117956311087L145,49.41182969516068L147.41666666666666,48.18374411168666L149.83333333333334,47.48764222206335L152.25,45.83401962126119L154.66666666666666,45.1406490624234L157.08333333333331,44.018366045968385L159.5,43.304252050647946L161.91666666666666,42.780712129074146L164.33333333333334,41.393614000915065L166.75,41.63432929923453L169.16666666666669,40.25757716304248L171.58333333333334,39.024068201817165L174,38.759330997012306L176.41666666666666,38.016465824331206L178.83333333333334,36.38911259262878L181.25,35.80658045464231L183.66666666666666,34.845872015079706L186.08333333333334,33.8212450863843L188.5,33.057064790840435L190.91666666666666,32.97885326106282L193.33333333333331,32.388647678845736L195.75,31.654227681966766L198.16666666666666,30.086274169690693L200.58333333333334,29.607287080769108L203,29.781685120871288L205.41666666666669,28.772600309259055L207.83333333333334,27.909095881108257L210.25,27.71695725782144L212.66666666666666,26.773175571342893L215.08333333333334,26.329144390809883L217.5,25.791088987820356L219.91666666666666,25.821386086602818L222.33333333333334,25.09255420426117L224.75,23.948994393703877L227.16666666666666,23.03196599814747L229.58333333333331,23.20159279545219L232,22.230394698620284L234.41666666666666,21.702003179455073L236.83333333333334,20.82810645011918L239.25,19.8827275795213L241.66666666666669,19.451321242002944L244.08333333333334,18.622037743179973L246.5,17.703426810889837L248.91666666666666,17.328825421803813L251.33333333333334,17.334957097574268L253.75,17.026249947908024L256.1666666666667,17.031173981882617L258.58333333333337,16.680998061691195L261,16.321488371249718L263.4166666666667,16.037872064564645" style="fill: none;" fill="none"></path></g></g></g></g><g opacity="0.2"><g><g><g><path stroke="rgb(0, 153, 136)" stroke-width="2px" d="M24.166666666666664,167.35089042037725Z" style="fill: none;" fill="none"></path></g><g><path stroke="rgb(238, 51, 119)" stroke-width="2px" d="M24.166666666666664,173.77428643335588Z" style="fill: none;" fill="none"></path></g><g><path stroke="rgb(51, 187, 238)" stroke-width="2px" d="M24.166666666666664,155.93504281528294L26.583333333333332,150.36302225477993L29,140.71391432359815L31.416666666666668,140.17030135542154L33.833333333333336,132.28793144971132L36.25,130.65709584206343L38.666666666666664,133.9187637604773L41.083333333333336,126.98771572485566L43.5,127.12361649423838L45.916666666666664,127.39542462676764L48.33333333333333,123.72604450955987L50.75,124.67736637964845L53.166666666666664,125.22097605094314L55.583333333333336,124.13375341147184L58,122.77472263947129L60.41666666666667,120.73617812991142L62.833333333333336,119.37715065479279L65.25,118.28992471843958L67.66666666666667,117.61041098088026L70.08333333333333,120.46437659114599L72.5,124.26965747773647L74.91666666666667,122.63882187008858L77.33333333333333,123.59014044329524L79.75,121.14389032870531L82.16666666666667,121.6875" style="fill: none;" fill="none"></path></g><g><path stroke="rgb(204, 51, 17)" stroke-width="2px" d="M24.166666666666664,168.44336993806064L26.583333333333332,145.8973281159997L29,132.55306009948254L31.416666666666668,122.33264374360442L33.833333333333336,113.19878076016903L36.25,105.96639112383127L38.666666666666664,98.76795277744532L41.083333333333336,93.53890684247017L43.5,90.17737307399511L45.916666666666664,85.62741887569427L48.33333333333333,83.6580330580473L50.75,80.16068094223738L53.166666666666664,76.28982507437468L55.583333333333336,74.49021548777819L58,72.38501132279634L60.41666666666667,70.89099631458521L62.833333333333336,67.9708820655942L65.25,66.64663669466972L67.66666666666667,65.32239791750908L70.08333333333333,63.01347282528877L72.5,61.179905354976654L74.91666666666667,59.99148492515087L77.33333333333333,60.36498208343983L79.75,57.13927325606346L82.16666666666667,55.33966366946697" style="fill: none;" fill="none"></path></g><g><path stroke="rgb(0, 119, 187)" stroke-width="2px" d="M24.166666666666664,174.82555286656134L26.583333333333332,172.51520290318877L29,168.43811388406903L31.416666666666668,164.2251224471256L33.833333333333336,162.45838524587452L36.25,157.9735873248428L38.666666666666664,155.119625011459L41.083333333333336,152.94517808407545L43.5,149.68350686877966L45.916666666666664,147.23725345730782L48.33333333333333,144.383291143924L50.75,141.52932883054018L53.166666666666664,140.84981509298086L55.583333333333336,138.811270583421L58,139.21897948533297L60.41666666666667,138.67536981403828L62.833333333333336,136.77272607386112L65.25,134.05466782674193L67.66666666666667,131.47251364588737L70.08333333333333,131.0648047439754L72.5,130.24938694015145L74.91666666666667,129.70577397197485L77.33333333333333,128.8903561681509L79.75,129.4339691363275L82.16666666666667,128.48264726623893L84.58333333333334,126.7159075923264L87,126.17229792103171L89.41666666666667,124.67736637964845L91.83333333333333,125.4927841834724L94.25,123.3183356076479L96.66666666666666,121.00798626244068L99.08333333333333,121.95930483564734L101.5,121.00798626244068L103.91666666666667,118.9694384559989L106.33333333333333,118.69763691723347L108.75,120.46437659114599L111.16666666666667,119.24124658852816L113.58333333333333,119.37715065479279L116,118.28992471843958L118.41666666666667,120.19256845861673L120.83333333333334,118.28992471843958L123.25,116.65908911079168L125.66666666666667,116.38728757202625L128.08333333333334,117.06680130958557L130.5,117.2027053758502L132.91666666666666,118.8335409834981L135.33333333333334,115.43596570193768L137.75,113.53332196176052L140.16666666666666,113.39741789549589L142.58333333333331,115.02825350314379L145,115.30006163567305L147.41666666666666,114.4846438318491L149.83333333333334,115.02825350314379L152.25,114.4846438318491L154.66666666666666,114.07693163305521L157.08333333333331,112.98971229046583L159.5,111.766582287848L161.91666666666666,113.53332196176052L164.33333333333334,112.71790415793657L166.75,112.58200009167194L169.16666666666669,111.6306848153472L171.58333333333334,111.08706855028868L174,112.44610261917114L176.41666666666666,111.6306848153472L178.83333333333334,109.59213700890541L181.25,110.40755481272936L183.66666666666666,110.1357466802001L186.08333333333334,110.81526701152325L188.5,111.2229726165533L190.91666666666666,111.90248635411263L193.33333333333331,111.2229726165533L195.75,110.81526701152325L198.16666666666666,109.04852733761072L200.58333333333334,109.04852733761072L203,109.59213700890541L205.41666666666669,109.45623294264078L207.83333333333334,109.18443140387535L210.25,108.64081513881683L212.66666666666666,108.23310953378677L215.08333333333334,109.32032887637615L217.5,107.2817876636982L219.91666666666666,107.96130140125751L222.33333333333334,107.2817876636982L224.75,110.81526701152325L227.16666666666666,110.27165074646473L229.58333333333331,109.18443140387535L232,107.82539733499289L234.41666666666666,106.60227392613888L236.83333333333334,108.23310953378677L239.25,107.55359579622746L241.66666666666669,107.00997953116894L244.08333333333334,106.46636985987425L246.5,107.55359579622746L248.91666666666666,106.87407546490431L251.33333333333334,106.19456172734499L253.75,106.33046579360962L256.1666666666667,107.14588359743357L258.58333333333337,107.00997953116894L261,105.78685612231493L263.4166666666667,107.41769172996283" style="fill: none;" fill="none"></path></g><g><path stroke="rgb(255, 112, 67)" stroke-width="2px" d="M24.166666666666664,175.37016571720596L26.583333333333332,171.43139954237267L29,166.23630283679813L31.416666666666668,160.76956737600267L33.833333333333336,153.9446360785514L36.25,148.7155851982534L38.666666666666664,144.19958558678627L41.083333333333336,136.22018844634295L43.5,131.8739650659263L45.916666666666664,127.76542379334569L48.33333333333333,125.62626504153013L50.75,120.63489791750908L53.166666666666664,117.78268624842167L55.583333333333336,114.7946562319994L58,110.51634532213211L60.41666666666667,106.37384616583586L62.833333333333336,102.46903900802135L65.25,99.48100899159908L67.66666666666667,100.43174401670694L70.08333333333333,95.71201358735561L72.5,94.01427105814219L74.91666666666667,91.80720642954111L77.33333333333333,88.1400780826807L79.75,86.81583930552006L82.16666666666667,85.899055570364L84.58333333333334,81.75656300783157L87,81.2132830247283L89.41666666666667,79.68531013280153L91.83333333333333,75.1353559345007L94.25,74.96558629721403L96.66666666666666,73.60738963633776L99.08333333333333,72.6906059011817L101.5,70.27981375157833L103.91666666666667,68.20856087654829L106.33333333333333,68.004833355546L108.75,66.40895788371563L111.16666666666667,65.18657957017422L113.58333333333333,63.25115163624287L116,62.47018624842167L118.41666666666667,61.315723702311516L120.83333333333334,58.327693685889244L123.25,56.96949702501297L125.66666666666667,58.293735802173615L128.08333333333334,56.494126215577126L130.5,54.728474512696266L132.91666666666666,53.709830313920975L135.33333333333334,53.06468327343464L137.75,49.60129563510418L140.16666666666666,50.07665325701237L142.58333333333331,50.28038737177849L145,46.952804893255234L147.41666666666666,46.34161573648453L149.83333333333334,46.443489387631416L152.25,43.353585720062256L154.66666666666666,44.100593224167824L157.08333333333331,42.334941521286964L159.5,42.23308105766773L161.91666666666666,41.99540224671364L164.33333333333334,39.31296680867672L166.75,41.99540224671364L169.16666666666669,38.19244895875454L171.58333333333334,37.17380475997925L174,38.36222518980503L176.41666666666666,36.902168065309525L178.83333333333334,33.948082745075226L181.25,34.932782247662544L183.66666666666666,33.40480935573578L186.08333333333334,32.284304693341255L188.5,31.910794347524643L190.91666666666666,32.86153596639633L193.33333333333331,31.503339305520058L195.75,30.55259768664837L198.16666666666666,27.73434390127659L200.58333333333334,28.88880644738674L203,30.04328218102455L205.41666666666669,27.258973091840744L207.83333333333334,26.613839238882065L210.25,27.428749322891235L212.66666666666666,25.357503041625023L215.08333333333334,25.663097620010376L217.5,24.984005883336067L219.91666666666666,25.866831734776497L222.33333333333334,23.99930638074875L224.75,22.23365467786789L227.16666666666666,21.656423404812813L229.58333333333331,23.4560329914093L232,20.773597553372383L234.41666666666666,20.909415900707245L236.83333333333334,19.51726135611534L239.25,18.46465927362442L241.66666666666669,18.804211735725403L244.08333333333334,17.378112494945526L246.5,16.325510412454605L248.91666666666666,16.76692333817482L251.33333333333334,17.344154611229897L253.75,16.5631892234087L256.1666666666667,17.038560032844543L258.58333333333337,16.155734181404114L261,15.782223835587502L263.4166666666667,15.61244760453701" style="fill: none;" fill="none"></path></g></g></g></g></g></g><g transform="translate(40, 177)" clip-path="url(#clip_1)"><clipPath id="clip_1"><rect width="290" height="22"></rect></clipPath><g><g><line x1="0" y1="0" x2="0" y2="5" style="visibility: inherit;" fill="rgb(0, 0, 0)" stroke="rgb(204, 204, 204)" stroke-width="1px"></line><line x1="24.166666666666664" y1="0" x2="24.166666666666664" y2="5" style="visibility: inherit;" fill="rgb(0, 0, 0)" stroke="rgb(204, 204, 204)" stroke-width="1px"></line><line x1="48.33333333333333" y1="0" x2="48.33333333333333" y2="5" style="visibility: inherit;" fill="rgb(0, 0, 0)" stroke="rgb(204, 204, 204)" stroke-width="1px"></line><line x1="72.5" y1="0" x2="72.5" y2="5" style="visibility: inherit;" fill="rgb(0, 0, 0)" stroke="rgb(204, 204, 204)" stroke-width="1px"></line><line x1="96.66666666666666" y1="0" x2="96.66666666666666" y2="5" style="visibility: inherit;" fill="rgb(0, 0, 0)" stroke="rgb(204, 204, 204)" stroke-width="1px"></line><line x1="120.83333333333334" y1="0" x2="120.83333333333334" y2="5" style="visibility: inherit;" fill="rgb(0, 0, 0)" stroke="rgb(204, 204, 204)" stroke-width="1px"></line><line x1="145" y1="0" x2="145" y2="5" style="visibility: inherit;" fill="rgb(0, 0, 0)" stroke="rgb(204, 204, 204)" stroke-width="1px"></line><line x1="169.16666666666669" y1="0" x2="169.16666666666669" y2="5" style="visibility: inherit;" fill="rgb(0, 0, 0)" stroke="rgb(204, 204, 204)" stroke-width="1px"></line><line x1="193.33333333333331" y1="0" x2="193.33333333333331" y2="5" style="visibility: inherit;" fill="rgb(0, 0, 0)" stroke="rgb(204, 204, 204)" stroke-width="1px"></line><line x1="217.5" y1="0" x2="217.5" y2="5" style="visibility: inherit;" fill="rgb(0, 0, 0)" stroke="rgb(204, 204, 204)" stroke-width="1px"></line><line x1="241.66666666666669" y1="0" x2="241.66666666666669" y2="5" style="visibility: inherit;" fill="rgb(0, 0, 0)" stroke="rgb(204, 204, 204)" stroke-width="1px"></line><line x1="265.8333333333333" y1="0" x2="265.8333333333333" y2="5" style="visibility: inherit;" fill="rgb(0, 0, 0)" stroke="rgb(204, 204, 204)" stroke-width="1px"></line><line x1="290" y1="0" x2="290" y2="5" style="visibility: inherit;" fill="rgb(0, 0, 0)" stroke="rgb(204, 204, 204)" stroke-width="1px"></line></g><g transform="translate(0, 8)"><text x="0" y="0" dx="0em" dy="0.95em" style="text-anchor: middle; visibility: hidden; font-family: Roboto, sans-serif; font-size: 12px; font-weight: 200;" fill="rgb(33, 33, 33)" stroke="none" stroke-width="1px">-10</text><text x="24.166666666666664" y="0" dx="0em" dy="0.95em" style="text-anchor: middle; visibility: inherit; font-family: Roboto, sans-serif; font-size: 12px; font-weight: 200;" fill="rgb(33, 33, 33)" stroke="none" stroke-width="1px">0</text><text x="48.33333333333333" y="0" dx="0em" dy="0.95em" style="text-anchor: middle; visibility: inherit; font-family: Roboto, sans-serif; font-size: 12px; font-weight: 200;" fill="rgb(33, 33, 33)" stroke="none" stroke-width="1px">10</text><text x="72.5" y="0" dx="0em" dy="0.95em" style="text-anchor: middle; visibility: inherit; font-family: Roboto, sans-serif; font-size: 12px; font-weight: 200;" fill="rgb(33, 33, 33)" stroke="none" stroke-width="1px">20</text><text x="96.66666666666666" y="0" dx="0em" dy="0.95em" style="text-anchor: middle; visibility: inherit; font-family: Roboto, sans-serif; font-size: 12px; font-weight: 200;" fill="rgb(33, 33, 33)" stroke="none" stroke-width="1px">30</text><text x="120.83333333333334" y="0" dx="0em" dy="0.95em" style="text-anchor: middle; visibility: inherit; font-family: Roboto, sans-serif; font-size: 12px; font-weight: 200;" fill="rgb(33, 33, 33)" stroke="none" stroke-width="1px">40</text><text x="145" y="0" dx="0em" dy="0.95em" style="text-anchor: middle; visibility: inherit; font-family: Roboto, sans-serif; font-size: 12px; font-weight: 200;" fill="rgb(33, 33, 33)" stroke="none" stroke-width="1px">50</text><text x="169.16666666666669" y="0" dx="0em" dy="0.95em" style="text-anchor: middle; visibility: inherit; font-family: Roboto, sans-serif; font-size: 12px; font-weight: 200;" fill="rgb(33, 33, 33)" stroke="none" stroke-width="1px">60</text><text x="193.33333333333331" y="0" dx="0em" dy="0.95em" style="text-anchor: middle; visibility: inherit; font-family: Roboto, sans-serif; font-size: 12px; font-weight: 200;" fill="rgb(33, 33, 33)" stroke="none" stroke-width="1px">70</text><text x="217.5" y="0" dx="0em" dy="0.95em" style="text-anchor: middle; visibility: inherit; font-family: Roboto, sans-serif; font-size: 12px; font-weight: 200;" fill="rgb(33, 33, 33)" stroke="none" stroke-width="1px">80</text><text x="241.66666666666669" y="0" dx="0em" dy="0.95em" style="text-anchor: middle; visibility: inherit; font-family: Roboto, sans-serif; font-size: 12px; font-weight: 200;" fill="rgb(33, 33, 33)" stroke="none" stroke-width="1px">90</text><text x="265.8333333333333" y="0" dx="0em" dy="0.95em" style="text-anchor: middle; visibility: inherit; font-family: Roboto, sans-serif; font-size: 12px; font-weight: 200;" fill="rgb(33, 33, 33)" stroke="none" stroke-width="1px">100</text><text x="290" y="0" dx="0em" dy="0.95em" style="text-anchor: middle; visibility: hidden; font-family: Roboto, sans-serif; font-size: 12px; font-weight: 200;" fill="rgb(33, 33, 33)" stroke="none" stroke-width="1px">110</text></g><line x1="0" y1="0" x2="290" y2="0" fill="rgb(0, 0, 0)" stroke="rgb(204, 204, 204)" stroke-width="1px"></line></g></g></g></g></svg>